<?xml version="1.0" standalone="no"?>
<!DOCTYPE svg PUBLIC "-//W3C//DTD SVG 20010904//EN"
 "http://www.w3.org/TR/2001/REC-SVG-20010904/DTD/svg10.dtd">
<svg version="1.0" xmlns="http://www.w3.org/2000/svg"
 width="300.000000pt" height="300.000000pt" viewBox="0 0 300.000000 300.000000"
 preserveAspectRatio="xMidYMid meet">
<metadata>
Created by potrace 1.10, written by Peter Selinger 2001-2011
</metadata>
<g transform="translate(0.000000,300.000000) scale(0.100000,-0.100000)"
fill="#000000" stroke="none">
<path d="M991 2517 c-51 -26 -66 -61 -67 -158 l-2 -90 -316 1 c-351 1 -369 -2
-406 -62 -20 -32 -20 -48 -20 -836 0 -882 -2 -849 59 -885 27 -16 118 -17
1261 -17 1143 0 1234 1 1261 17 61 36 59 3 59 885 0 788 0 804 -20 836 -37 60
-55 63 -406 62 l-316 -1 -2 90 c-1 74 -5 94 -22 118 -40 53 -33 53 -554 53
-365 0 -491 -3 -509 -13z m1013 -69 c11 -16 16 -46 16 -103 l0 -80 -520 0
-520 0 0 80 c0 57 5 87 16 103 l15 22 489 0 489 0 15 -22z m738 -255 c17 -15
18 -54 18 -821 0 -735 -1 -807 -17 -824 -15 -17 -67 -18 -1241 -18 -1126 0
-1227 1 -1244 17 -17 15 -18 54 -18 821 0 735 1 807 17 824 15 17 67 18 1241
18 1126 0 1227 -1 1244 -17z"/>
<path d="M409 2027 c-41 -28 -65 -87 -55 -139 7 -38 46 -85 84 -99 39 -15 190
-11 225 6 67 33 94 112 61 180 -29 61 -62 75 -180 75 -89 0 -105 -3 -135 -23z
m230 -42 c47 -24 56 -83 19 -122 -19 -21 -30 -23 -112 -23 -78 0 -93 3 -113
22 -39 37 -29 99 22 126 30 17 151 15 184 -3z"/>
<path d="M2392 2030 c-35 -22 -62 -72 -62 -116 0 -68 66 -134 134 -134 128 0
187 150 92 237 -30 28 -43 33 -83 33 -30 0 -60 -7 -81 -20z m136 -66 c28 -31
28 -64 1 -98 -43 -54 -139 -21 -139 49 0 78 85 108 138 49z"/>
<path d="M1404 2021 c-423 -67 -672 -504 -513 -900 142 -356 558 -513 904
-341 403 200 486 740 163 1061 -136 135 -366 209 -554 180z m240 -71 c113 -29
190 -73 278 -161 118 -116 177 -256 177 -419 1 -275 -187 -517 -454 -585 -76
-19 -214 -19 -290 0 -214 54 -389 232 -439 445 -32 135 -16 272 48 407 45 94
159 212 253 261 133 70 286 88 427 52z"/>
<path d="M1420 1829 c-241 -39 -422 -292 -382 -533 46 -273 313 -449 577 -381
233 61 387 294 346 524 -36 202 -195 360 -391 391 -73 11 -74 11 -150 -1z
m162 -60 c235 -49 379 -292 308 -521 -97 -316 -521 -390 -716 -125 -120 163
-109 372 27 521 98 108 241 154 381 125z"/>
<path d="M1311 1566 c-71 -71 -102 -109 -99 -122 8 -43 39 -26 145 78 88 87
104 108 99 126 -4 12 -15 22 -24 22 -10 0 -64 -47 -121 -104z"/>
<path d="M1567 1612 c-48 -49 -60 -85 -31 -96 23 -9 137 105 128 128 -11 29
-48 17 -97 -32z"/>
<path d="M1332 1376 c-112 -111 -133 -146 -96 -160 24 -9 256 221 252 249 -6
44 -42 23 -156 -89z"/>
</g>
</svg>
